<svg xmlns="http://www.w3.org/2000/svg" xmlns:xlink="http://www.w3.org/1999/xlink" version="1.1" width="256" height="256" viewBox="0 0 256 256" xml:space="preserve">

<defs>
</defs>
<g style="stroke: none; stroke-width: 0; stroke-dasharray: none; stroke-linecap: butt; stroke-linejoin: miter; stroke-miterlimit: 10; fill: none; fill-rule: nonzero; opacity: 1;" transform="translate(1.4065934065934016 1.4065934065934016) scale(2.81 2.81)" >
	<path d="M 50.133 1 C 31.03 1 15.545 16.486 15.545 35.588 c 0 8.529 3.1 16.323 8.218 22.354 L 50.133 89 l 26.371 -31.06 c 5.117 -6.029 8.218 -13.825 8.218 -22.354 C 84.723 16.486 69.237 1 50.133 1 z M 50.133 48.623 c -7.857 0 -14.225 -6.368 -14.225 -14.225 s 6.368 -14.225 14.225 -14.225 c 7.857 0 14.225 6.368 14.225 14.225 C 64.359 42.254 57.99 48.623 50.133 48.623 z" style="stroke: none; stroke-width: 1; stroke-dasharray: none; stroke-linecap: butt; stroke-linejoin: miter; stroke-miterlimit: 10; fill: rgb(237,229,221); fill-rule: nonzero; opacity: 1;" transform=" matrix(1 0 0 1 0 0) " stroke-linecap="round" />
	<path d="M 39.866 90 c -0.229 0 -0.458 -0.078 -0.647 -0.237 c -0.421 -0.357 -0.472 -0.989 -0.115 -1.41 l 26.37 -31.06 c 5.146 -6.063 7.98 -13.772 7.98 -21.706 c 0.001 -8.971 -3.492 -17.405 -9.837 -23.749 S 48.839 2 39.867 2 C 21.346 2 6.278 17.068 6.278 35.588 c 0 7.933 2.834 15.642 7.98 21.706 l 9.649 11.365 c 0.357 0.421 0.306 1.053 -0.115 1.41 c -0.421 0.357 -1.052 0.306 -1.41 -0.115 l -9.65 -11.365 c -5.453 -6.426 -8.456 -14.594 -8.456 -23 C 4.278 15.965 20.243 0 39.867 0 c 9.506 0 18.444 3.702 25.166 10.424 c 6.723 6.722 10.424 15.658 10.423 25.163 c 0 8.408 -3.003 16.576 -8.455 23.001 l -26.371 31.06 C 40.431 89.88 40.149 90 39.866 90 z" style="stroke: none; stroke-width: 1; stroke-dasharray: none; stroke-linecap: butt; stroke-linejoin: miter; stroke-miterlimit: 10; fill: rgb(203,177,151); fill-rule: nonzero; opacity: 1;" transform=" matrix(1 0 0 1 0 0) " stroke-linecap="round" />
	<path d="M 39.867 49.623 c -0.552 0 -1 -0.447 -1 -1 s 0.448 -1 1 -1 c 7.292 0 13.225 -5.933 13.225 -13.226 s -5.933 -13.225 -13.225 -13.225 s -13.225 5.933 -13.225 13.225 c 0 3.01 0.984 5.845 2.847 8.199 c 0.343 0.433 0.27 1.062 -0.164 1.405 c -0.433 0.343 -1.062 0.27 -1.405 -0.164 c -2.145 -2.711 -3.279 -5.976 -3.279 -9.44 c 0 -8.395 6.83 -15.225 15.225 -15.225 s 15.225 6.83 15.225 15.225 C 55.092 42.793 48.262 49.623 39.867 49.623 z" style="stroke: none; stroke-width: 1; stroke-dasharray: none; stroke-linecap: butt; stroke-linejoin: miter; stroke-miterlimit: 10; fill: rgb(203,177,151); fill-rule: nonzero; opacity: 1;" transform=" matrix(1 0 0 1 0 0) " stroke-linecap="round" />
</g>
</svg>